<svg width="85" height="15" viewBox="0 0 85 15" fill="none" xmlns="http://www.w3.org/2000/svg">
<rect width="85" height="15" rx="2" fill="#AAB803"/>
<rect width="85" height="4" rx="2" fill="#24B318"/>
<path d="M3.50565 7.00283L1.33635 3.25527L5.66647 3.25038L3.50565 7.00283Z" fill="#24B318"/>
<path d="M60.5056 6.00283L58.3363 2.25527L62.6665 2.25038L60.5056 6.00283Z" fill="#24B318"/>
<path d="M81.5056 7.00283L79.3363 3.25527L83.6665 3.25038L81.5056 7.00283Z" fill="#24B318"/>
<path d="M75.5056 7.00283L73.3363 3.25527L77.6665 3.25038L75.5056 7.00283Z" fill="#24B318"/>
<path d="M71.5056 6.00283L69.3363 2.25527L73.6665 2.25038L71.5056 6.00283Z" fill="#24B318"/>
<path d="M66.5056 7.00283L64.3363 3.25527L68.6665 3.25038L66.5056 7.00283Z" fill="#24B318"/>
<path d="M53.5056 6.00283L51.3363 2.25527L55.6665 2.25038L53.5056 6.00283Z" fill="#24B318"/>
<path d="M51.5056 7.00283L49.3363 3.25527L53.6665 3.25038L51.5056 7.00283Z" fill="#24B318"/>
<path d="M38.5056 7.00283L36.3363 3.25527L40.6665 3.25038L38.5056 7.00283Z" fill="#24B318"/>
<path d="M32.5056 6.00283L30.3363 2.25527L34.6665 2.25038L32.5056 6.00283Z" fill="#24B318"/>
<path d="M27.5056 7.00283L25.3363 3.25527L29.6665 3.25038L27.5056 7.00283Z" fill="#24B318"/>
<path d="M19.5056 6.00283L17.3363 2.25527L21.6665 2.25038L19.5056 6.00283Z" fill="#24B318"/>
<path d="M10.5056 7.00283L8.33635 3.25527L12.6665 3.25038L10.5056 7.00283Z" fill="#24B318"/>
</svg>
