<svg width="20" height="15" viewBox="0 0 20 15" fill="none" xmlns="http://www.w3.org/2000/svg">
    <rect width="20" height="15" rx="2" fill="#AAB803" />
    <rect width="20" height="4" rx="2" fill="#24B318" />
    <path d="M0.824851 7.00283L0.314428 3.25527L1.33328 3.25038L0.824851 7.00283Z" fill="#24B318" />
    <path d="M14.2366 6.00283L13.7262 2.25527L14.7451 2.25038L14.2366 6.00283Z" fill="#24B318" />
    <path d="M19.1778 7.00283L18.6674 3.25527L19.6862 3.25038L19.1778 7.00283Z" fill="#24B318" />
    <path d="M17.766 7.00283L17.2556 3.25527L18.2745 3.25038L17.766 7.00283Z" fill="#24B318" />
    <path d="M16.8249 6.00283L16.3144 2.25527L17.3333 2.25038L16.8249 6.00283Z" fill="#24B318" />
    <path d="M15.6484 7.00283L15.138 3.25527L16.1568 3.25038L15.6484 7.00283Z" fill="#24B318" />
    <path d="M12.5896 6.00283L12.0791 2.25527L13.098 2.25038L12.5896 6.00283Z" fill="#24B318" />
    <path d="M12.119 7.00283L11.6086 3.25527L12.6274 3.25038L12.119 7.00283Z" fill="#24B318" />
    <path d="M9.06015 7.00283L8.54973 3.25527L9.56858 3.25038L9.06015 7.00283Z" fill="#24B318" />
    <path d="M7.64839 6.00283L7.13797 2.25527L8.15682 2.25038L7.64839 6.00283Z" fill="#24B318" />
    <path d="M6.47192 7.00283L5.96149 3.25527L6.98034 3.25038L6.47192 7.00283Z" fill="#24B318" />
    <path d="M4.58957 6.00283L4.07914 2.25527L5.098 2.25038L4.58957 6.00283Z" fill="#24B318" />
    <path d="M2.47192 7.00283L1.96149 3.25527L2.98034 3.25038L2.47192 7.00283Z" fill="#24B318" />
</svg>